# xmcd
#
# Track frame offsets:
#	150
#	9405
#	19418
#	30046
#	38499
#	49667
#	61930
#	73210
#	85630
#	97315
#	108018
#	116786
#
# Disc length: 1702 seconds
#
# Revision: 1
# Processed by: cddbd v1.5.2PL0 Copyright (c) Steve Scherf et al.
# Submitted via: audiograbber 1.83.01
#
DISCID=8e06a40c
DTITLE=Roy Drusky - Country Song Express
DYEAR=1966
DGENRE=Country
TTITLE0=White Lightin' Express
TTITLE1=Take Me Back
TTITLE2=Here Comes My Baby Back Again
TTITLE3=From Warm To Cool To Cold
TTITLE4=Lonely Thing Called Me
TTITLE5=Green Green Grass Of Home
TTITLE6=A Thing Called Sadness
TTITLE7=Crystal Chandeliers
TTITLE8=Four Strong Winds
TTITLE9=Make The World Go Away
TTITLE10=Ain't That Just Like A Fool
TTITLE11=Life's Gone And Slipped Away
EXTD=
EXTT0=
EXTT1=
EXTT2=
EXTT3=
EXTT4=
EXTT5=
EXTT6=
EXTT7=
EXTT8=
EXTT9=
EXTT10=
EXTT11=
PLAYORDER=
